<svg width="15" height="14" viewBox="0 0 15 14" fill="none" xmlns="http://www.w3.org/2000/svg">
<path d="M8.04665 3.2214L5.45407 1.50003L8.01901 3.17994L8.04665 3.2214Z" fill="black"/>
<path d="M8.04665 3.2214L8.46443 3.49879C8.31824 3.48852 8.1894 3.4154 8.10473 3.30629C8.09588 3.29488 8.0875 3.28307 8.07965 3.2709L8.04665 3.2214Z" fill="black"/>
<path fill-rule="evenodd" clip-rule="evenodd" d="M0.666642 3.5895L0.666659 8.22224C0.666655 9.04351 0.666653 9.69049 0.709192 10.2111C0.752591 10.7423 0.842746 11.1859 1.04814 11.589C1.38369 12.2476 1.91912 12.783 2.57769 13.1186C2.98079 13.3239 3.42437 13.4141 3.95555 13.4575C4.4762 13.5 5.12317 13.5 5.94444 13.5H9.72221C10.5435 13.5 11.1904 13.5 11.7111 13.4575C12.2423 13.4141 12.6859 13.3239 13.089 13.1186C13.7475 12.783 14.283 12.2476 14.6185 11.589C14.8239 11.1859 14.9141 10.7423 14.9575 10.2111C15 9.6905 15 9.04355 15 8.2223V7.77782C15 6.95657 15 6.30957 14.9575 5.78893C14.9141 5.25775 14.8239 4.81417 14.6185 4.41107C14.283 3.7525 13.7475 3.21707 13.089 2.88151C12.6859 2.67612 12.2423 2.58597 11.7111 2.54257C11.1904 2.50003 10.5435 2.50003 9.7222 2.50003L8.76758 2.50004L8.49173 2.08623C8.18414 1.62447 7.97144 1.30518 7.68369 1.06867C7.42979 0.859987 7.13723 0.703415 6.82275 0.607912C6.46635 0.499676 6.0827 0.499815 5.52787 0.500017L3.75613 0.500018C3.21082 0.499838 2.83872 0.499716 2.51961 0.58522C1.65688 0.816388 0.983012 1.49026 0.751844 2.35299C0.66634 2.67209 0.666462 3.0442 0.666642 3.5895ZM6.53217 1.56476C6.33581 1.50513 6.11135 1.50003 5.45407 1.50003H3.83333C3.18115 1.50003 2.95315 1.50433 2.77843 1.55115C2.26079 1.68985 1.85647 2.09417 1.71777 2.61181C1.67095 2.78653 1.66666 3.01453 1.66666 3.6667V5.83337H13.9577C13.9185 5.38529 13.8459 5.09736 13.7275 4.86506C13.4878 4.39465 13.1054 4.0122 12.635 3.77252C12.3963 3.65093 12.099 3.57759 11.6297 3.53925C11.1545 3.50042 10.5483 3.50004 9.69999 3.50004H8.50773L8.01901 3.17994L7.70061 2.70234C7.33602 2.15546 7.20727 1.97152 7.04873 1.84122C6.89639 1.71601 6.72085 1.62206 6.53217 1.56476ZM13.9968 6.83337H1.66666V8.20004C1.66666 9.04836 1.66705 9.65454 1.70587 10.1297C1.74422 10.599 1.81755 10.8964 1.93914 11.135C2.17883 11.6054 2.56128 11.9879 3.03168 12.2276C3.27032 12.3491 3.56764 12.4225 4.03698 12.4608C4.51215 12.4996 5.11833 12.5 5.96665 12.5H9.69999C10.5483 12.5 11.1545 12.4996 11.6297 12.4608C12.099 12.4225 12.3963 12.3491 12.635 12.2276C13.1054 11.9879 13.4878 11.6054 13.7275 11.135C13.8491 10.8964 13.9224 10.599 13.9608 10.1297C13.9996 9.65454 14 9.04836 14 8.20004V7.80004C14 7.43619 13.9999 7.11689 13.9968 6.83337Z" fill="black"/>
</svg>
