<svg width="14" height="14" viewBox="0 0 14 14" fill="none" xmlns="http://www.w3.org/2000/svg">
<path d="M3.69906 11.6342L8.53534 6.79787C8.93135 6.40186 9.12936 6.20385 9.35769 6.12966C9.55853 6.0644 9.77488 6.0644 9.97573 6.12966C10.2041 6.20385 10.4021 6.40186 10.7981 6.79787L11.7387 7.7385C12.1216 8.12136 12.313 8.31279 12.4947 8.60433C12.7302 8.98213 12.9621 9.84757 12.9471 10.2925C12.9355 10.6358 12.9229 10.6827 12.8978 10.7763V10.7763C12.6204 11.8116 11.8118 12.6202 10.7765 12.8976C10.395 12.9998 9.93001 12.9998 9.00004 12.9998H4.26474C3.65893 12.9998 3.35602 12.9998 3.21576 12.88C3.09405 12.7761 3.02946 12.6202 3.04202 12.4606C3.05649 12.2767 3.27068 12.0625 3.69906 11.6342Z" stroke="black" stroke-linecap="round" stroke-linejoin="round"/>
<path d="M0.99939 5.8C0.99939 4.11984 0.99939 3.27976 1.32637 2.63803C1.61399 2.07354 2.07293 1.6146 2.63742 1.32698C3.27915 1 4.11923 1 5.79939 1H8.19939C9.87955 1 10.7196 1 11.3614 1.32698C11.9258 1.6146 12.3848 2.07354 12.6724 2.63803C12.9994 3.27976 12.9994 4.11984 12.9994 5.8V8.2C12.9994 9.88016 12.9994 10.7202 12.6724 11.362C12.3848 11.9265 11.9258 12.3854 11.3614 12.673C10.7196 13 9.87955 13 8.19939 13H5.79939C4.11923 13 3.27915 13 2.63742 12.673C2.07293 12.3854 1.61399 11.9265 1.32637 11.362C0.99939 10.7202 0.99939 9.88016 0.99939 8.2V5.8Z" stroke="black" stroke-linecap="round" stroke-linejoin="round"/>
<path d="M4.66671 6.00016C5.40309 6.00016 6.00004 5.40321 6.00004 4.66683C6.00004 3.93045 5.40309 3.3335 4.66671 3.3335C3.93033 3.3335 3.33337 3.93045 3.33337 4.66683C3.33337 5.40321 3.93033 6.00016 4.66671 6.00016Z" stroke="black" stroke-linecap="round" stroke-linejoin="round"/>
</svg>
