<svg width="15" height="14" viewBox="0 0 15 14" fill="none" xmlns="http://www.w3.org/2000/svg">
<path d="M0.666626 4.91823C0.666626 3.67477 1.69356 2.66675 2.93702 2.66675C3.56651 2.66675 4.13423 2.26394 4.33329 1.66675C4.53236 1.06956 5.09122 0.666748 5.72072 0.666748H8.94587C9.57536 0.666748 10.1342 1.06956 10.3333 1.66675C10.5324 2.26394 11.1001 2.66675 11.7296 2.66675C12.973 2.66675 14 3.67477 14 4.91823V8.53341C14 10.2136 14 11.0537 13.673 11.6954C13.3854 12.2599 12.9264 12.7188 12.3619 13.0064C11.7202 13.3334 10.8801 13.3334 9.19996 13.3334H5.46662C3.78647 13.3334 2.94639 13.3334 2.30465 13.0064C1.74017 12.7188 1.28123 12.2599 0.993606 11.6954C0.666626 11.0537 0.666626 10.2136 0.666626 8.53341V4.91823Z" stroke="black" stroke-linecap="round" stroke-linejoin="round"/>
<path d="M7.33329 10.3334C8.80605 10.3334 9.99996 9.13951 9.99996 7.66675C9.99996 6.19399 8.80605 5.00008 7.33329 5.00008C5.86053 5.00008 4.66663 6.19399 4.66663 7.66675C4.66663 9.13951 5.86053 10.3334 7.33329 10.3334Z" stroke="black" stroke-linecap="round" stroke-linejoin="round"/>
</svg>
